<svg xmlns="http://www.w3.org/2000/svg" version="1.1" xmlns:xlink="http://www.w3.org/1999/xlink" xmlns:svgjs="http://svgjs.com/svgjs" width="1440" height="560" preserveAspectRatio="none" viewBox="0 0 1440 560"><g mask="url(&quot;#SvgjsMask1000&quot;)" fill="none"><rect width="1440" height="560" x="0" y="0" fill="#0e2a47"></rect><path d="M236.19 509.61 a1.44 1.44 0 1 0 2.88 0 a1.44 1.44 0 1 0 -2.88 0z" fill="#d3b714"></path><path d="M1088.34 50.61L1132.76 50.61L1132.76 96L1088.34 96z" fill="#e73635"></path><path d="M185.82 223.6L224.51 223.6L224.51 262.29L185.82 262.29z" stroke="#d3b714"></path><path d="M502.44 295.94a49.34 49.34 0 1 0 80.72 56.78z" stroke="#d3b714"></path><path d="M178.15 290.5 a14.33 14.33 0 1 0 28.66 0 a14.33 14.33 0 1 0 -28.66 0z" stroke="#037b0b"></path><path d="M1279.05 318.79a39.06 39.06 0 1 0 65.2 43.02z" fill="#d3b714"></path><path d="M235.17 393.33L268.81 393.33L268.81 431.5L235.17 431.5z" fill="#e73635"></path><path d="M1248.03 509.01L1275.72 509.01L1275.72 529.96L1248.03 529.96z" fill="#e73635"></path><path d="M1048.15 180.67 a49.71 49.71 0 1 0 99.42 0 a49.71 49.71 0 1 0 -99.42 0z" stroke="#037b0b"></path><path d="M698.76 199.39L742.18 199.39L742.18 237.31L698.76 237.31z" fill="#d3b714"></path><path d="M226.28 386.91L268.8 386.91L268.8 429.43L226.28 429.43z" stroke="#d3b714"></path><path d="M95.54 316.43L125.48 316.43L125.48 346.37L95.54 346.37z" fill="#e73635"></path><path d="M197.13 6.15L218.18 6.15L218.18 36.63L197.13 36.63z" stroke="#d3b714"></path><path d="M944.45 106.73L946.69 106.73L946.69 110.48L944.45 110.48z" stroke="#e73635"></path><path d="M555.96 317.89L585.94 317.89L585.94 347.87L555.96 347.87z" fill="#e73635"></path><path d="M1102.06 379.46 a35.99 35.99 0 1 0 71.98 0 a35.99 35.99 0 1 0 -71.98 0z" fill="#037b0b"></path><path d="M123.48 490.8a32.57 32.57 0 1 0-43.58 48.41z" stroke="#037b0b"></path><path d="M1135.84 495.59L1183.6 495.59L1183.6 543.35L1135.84 543.35z" stroke="#d3b714"></path><path d="M257.15 333.42a44.49 44.49 0 1 0-86.15 22.23z" stroke="#037b0b"></path><path d="M925.4 53.94a36.55 36.55 0 1 0 14.92 71.57z" fill="#037b0b"></path><path d="M1304.88 525.3L1334.02 525.3L1334.02 554.44L1304.88 554.44z" stroke="#037b0b"></path><path d="M530.56 425.29 a10.19 10.19 0 1 0 20.38 0 a10.19 10.19 0 1 0 -20.38 0z" stroke="#d3b714"></path><path d="M105.39 298.65L106.98 298.65L106.98 300.24L105.39 300.24z" fill="#037b0b"></path><path d="M157.49 486.23 a25.05 25.05 0 1 0 50.1 0 a25.05 25.05 0 1 0 -50.1 0z" fill="#037b0b"></path><path d="M970.65 77.07L986.21 77.07L986.21 92.63L970.65 92.63z" stroke="#037b0b"></path><path d="M177.56 96.61a42.21 42.21 0 1 0 45.4-71.17z" fill="#037b0b"></path><path d="M95.08 168.7 a49.75 49.75 0 1 0 99.5 0 a49.75 49.75 0 1 0 -99.5 0z" stroke="#e73635"></path><path d="M1218.51 385.09a33.2 33.2 0 1 0-65.9 8.12z" stroke="#e73635"></path><path d="M776.9 47.07 a31.2 31.2 0 1 0 62.4 0 a31.2 31.2 0 1 0 -62.4 0z" stroke="#037b0b"></path><path d="M186.35 77.63 a20.97 20.97 0 1 0 41.94 0 a20.97 20.97 0 1 0 -41.94 0z" stroke="#037b0b"></path><path d="M1106.04 64.33a4.83 4.83 0 1 0-8.43-4.71z" stroke="#037b0b"></path><path d="M529.87 500.42L553.96 500.42L553.96 544.22L529.87 544.22z" fill="#d3b714"></path><path d="M1066.38 251.2L1094.29 251.2L1094.29 287.68L1066.38 287.68z" fill="#d3b714"></path></g><defs><mask id="SvgjsMask1000"><rect width="1440" height="560" fill="#ffffff"></rect></mask></defs></svg>